<svg xmlns="http://www.w3.org/2000/svg" width="124.988" height="100" viewBox="0 0 124.988 100"><path d="M103.115,43.746h-50A3.134,3.134,0,0,0,50,46.87V74.993H12.5V28.122A3.134,3.134,0,0,0,9.374,25H3.125A3.134,3.134,0,0,0,0,28.122V96.866A3.134,3.134,0,0,0,3.125,99.99H9.374A3.134,3.134,0,0,0,12.5,96.866V87.491h99.99v9.374a3.134,3.134,0,0,0,3.125,3.125h6.249a3.134,3.134,0,0,0,3.125-3.125V65.619A21.862,21.862,0,0,0,103.115,43.746Zm-76.555-25H51.186l5.39,10.78a3.12,3.12,0,0,0,5.585,0l9.706-19.412,4.316,8.632H99.99a3.125,3.125,0,0,0,0-6.249H80.051l-5.39-10.78a3.12,3.12,0,0,0-5.585,0L59.369,21.131l-3.886-7.773a1.57,1.57,0,0,0-1.406-.859H26.56A1.567,1.567,0,0,0,25,14.061v3.125A1.567,1.567,0,0,0,26.56,18.748Zm4.687,50a12.5,12.5,0,1,0-12.5-12.5A12.51,12.51,0,0,0,31.247,68.743Z" transform="translate(0 0.01)"/></svg>