<svg xmlns="http://www.w3.org/2000/svg" width="100" height="100" viewBox="0 0 100 100"><path d="M63.791,36.209a29.672,29.672,0,0,1,.07,41.912c-.021.023-.047.049-.07.072L50.666,91.319A29.687,29.687,0,0,1,8.682,49.334l7.247-7.247a3.122,3.122,0,0,1,5.331,2.071,35.989,35.989,0,0,0,1.893,10.3,3.143,3.143,0,0,1-.739,3.245l-2.556,2.556A14.063,14.063,0,1,0,39.618,80.27L52.743,67.147a14.059,14.059,0,0,0,0-19.889,14.631,14.631,0,0,0-2.02-1.674,3.132,3.132,0,0,1-1.357-2.462A7.78,7.78,0,0,1,51.651,37.3l4.112-4.112a3.138,3.138,0,0,1,4.02-.338,29.782,29.782,0,0,1,4.008,3.359ZM91.318,8.681a29.721,29.721,0,0,0-41.984,0L36.208,21.806c-.023.023-.049.049-.07.072a29.693,29.693,0,0,0,4.078,45.271,3.138,3.138,0,0,0,4.02-.338L48.349,62.7a7.78,7.78,0,0,0,2.285-5.821,3.132,3.132,0,0,0-1.357-2.462,14.631,14.631,0,0,1-2.02-1.674,14.059,14.059,0,0,1,0-19.889L60.382,19.73a14.063,14.063,0,1,1,19.76,20.014L77.586,42.3a3.143,3.143,0,0,0-.739,3.245,35.99,35.99,0,0,1,1.893,10.3,3.122,3.122,0,0,0,5.331,2.071l7.247-7.247a29.719,29.719,0,0,0,0-41.984Z" transform="translate(0)"/></svg>