<svg xmlns="http://www.w3.org/2000/svg" width="60" height="60" viewBox="0 0 60 60"><path d="M60,10.179V57.321a6.43,6.43,0,0,1-6.429,6.429H20.679a34.317,34.317,0,0,0,3.67-7.942c.4-1.54,2.049-7.821,2.049-7.821,1.071,2.049,4.205,3.777,7.54,3.777C43.862,51.763,51,42.643,51,31.313c0-10.862-8.866-18.991-20.277-18.991C16.527,12.321,9,21.844,9,32.223c0,4.821,2.571,10.821,6.67,12.737.629.295.951.161,1.1-.442.107-.455.67-2.692.911-3.723a.97.97,0,0,0-.228-.937A12.82,12.82,0,0,1,15,32.357C15,25.1,20.491,18.08,29.853,18.08c8.076,0,13.741,5.5,13.741,13.379,0,8.893-4.487,15.054-10.339,15.054a4.783,4.783,0,0,1-4.875-5.946C29.3,36.656,31.1,32.438,31.1,29.612c0-7.1-10.112-6.121-10.112,3.348a12.017,12.017,0,0,0,.978,4.888C17.759,55.634,17.129,55.862,18,63.643l.295.107H6.429A6.43,6.43,0,0,1,0,57.321V10.179A6.43,6.43,0,0,1,6.429,3.75H53.571A6.43,6.43,0,0,1,60,10.179Z" transform="translate(0 -3.75)"/></svg>