<svg xmlns="http://www.w3.org/2000/svg" width="60" height="60" viewBox="0 0 60 60"><path d="M53.571,3.75H6.429A6.43,6.43,0,0,0,0,10.179V57.321A6.43,6.43,0,0,0,6.429,63.75H53.571A6.43,6.43,0,0,0,60,57.321V10.179A6.43,6.43,0,0,0,53.571,3.75ZM47.022,25.018c.027.375.027.763.027,1.138,0,11.612-8.839,24.991-24.991,24.991A24.876,24.876,0,0,1,8.571,47.21a18.5,18.5,0,0,0,2.116.107,17.611,17.611,0,0,0,10.9-3.75,8.8,8.8,0,0,1-8.21-6.094,9.467,9.467,0,0,0,3.964-.161,8.784,8.784,0,0,1-7.031-8.625V28.58a8.778,8.778,0,0,0,3.964,1.112,8.765,8.765,0,0,1-3.911-7.313,8.674,8.674,0,0,1,1.192-4.433,24.941,24.941,0,0,0,18.107,9.188,8.8,8.8,0,0,1,14.987-8.022A17.212,17.212,0,0,0,50.223,17a8.761,8.761,0,0,1-3.857,4.835,17.48,17.48,0,0,0,5.063-1.366A18.489,18.489,0,0,1,47.022,25.018Z" transform="translate(0 -3.75)" fill="#fc8621"/></svg>