<svg xmlns="http://www.w3.org/2000/svg" width="60" height="60" viewBox="0 0 60 60"><path d="M30,0c-8.15,0-9.167.037-12.367.18A22.121,22.121,0,0,0,10.35,1.575a14.691,14.691,0,0,0-5.315,3.46,14.638,14.638,0,0,0-3.46,5.315A22.057,22.057,0,0,0,.18,17.632C.03,20.832,0,21.85,0,30s.037,9.167.18,12.368A22.135,22.135,0,0,0,1.575,49.65a14.712,14.712,0,0,0,3.46,5.315,14.67,14.67,0,0,0,5.315,3.46,22.149,22.149,0,0,0,7.282,1.4c3.2.15,4.217.18,12.367.18s9.167-.037,12.368-.18a22.2,22.2,0,0,0,7.283-1.4,15.332,15.332,0,0,0,8.775-8.775,22.135,22.135,0,0,0,1.4-7.282c.15-3.2.18-4.217.18-12.367s-.037-9.167-.18-12.367a22.186,22.186,0,0,0-1.4-7.283,14.724,14.724,0,0,0-3.46-5.315,14.617,14.617,0,0,0-5.315-3.46A22.07,22.07,0,0,0,42.368.18C39.167.03,38.15,0,30,0Zm0,5.4c8.007,0,8.963.04,12.125.177a16.529,16.529,0,0,1,5.567,1.037,9.872,9.872,0,0,1,5.7,5.692,16.564,16.564,0,0,1,1.032,5.568c.142,3.165.175,4.115.175,12.125s-.037,8.963-.185,12.125a16.883,16.883,0,0,1-1.053,5.567,9.526,9.526,0,0,1-2.247,3.455,9.359,9.359,0,0,1-3.45,2.24,16.685,16.685,0,0,1-5.588,1.032c-3.185.142-4.122.175-12.147.175s-8.965-.037-12.147-.185a17.011,17.011,0,0,1-5.59-1.053A9.29,9.29,0,0,1,8.74,51.11a9.109,9.109,0,0,1-2.25-3.45,17.025,17.025,0,0,1-1.05-5.588c-.113-3.15-.153-4.122-.153-12.11S5.327,21,5.44,17.81a17.006,17.006,0,0,1,1.05-5.585A8.893,8.893,0,0,1,8.74,8.773a8.873,8.873,0,0,1,3.448-2.245A16.6,16.6,0,0,1,17.74,5.475c3.188-.113,4.125-.15,12.147-.15L30,5.4Zm0,9.195A15.4,15.4,0,1,0,45.4,30,15.4,15.4,0,0,0,30,14.595ZM30,40A10,10,0,1,1,40,30,10,10,0,0,1,30,40ZM49.615,13.987a3.6,3.6,0,1,1-3.6-3.6A3.6,3.6,0,0,1,49.615,13.987Z"/></svg>