<svg xmlns="http://www.w3.org/2000/svg" width="87.498" height="100" viewBox="0 0 87.498 100"><path d="M21.875,25a15.581,15.581,0,0,1,7.813-13.457V50h9.375V9.375h9.375V50h9.375V11.543A15.581,15.581,0,0,1,65.625,25V50H75V25A25,25,0,0,0,50,0H37.5a25,25,0,0,0-25,25V50h9.375ZM87.168,66.777l-2.09-6.25a6.259,6.259,0,0,0-5.937-4.277H8.34A6.259,6.259,0,0,0,2.4,60.527l-2.09,6.25A6.266,6.266,0,0,0,6.25,75V96.875A3.134,3.134,0,0,0,9.375,100h6.25a3.134,3.134,0,0,0,3.125-3.125V75h50V96.875A3.134,3.134,0,0,0,71.875,100h6.25a3.134,3.134,0,0,0,3.125-3.125V75A6.246,6.246,0,0,0,87.168,66.777Z" transform="translate(0.005)"/></svg>