<svg xmlns="http://www.w3.org/2000/svg" width="150" height="171.432" viewBox="0 0 150 171.432"><path d="M37.507,42.858A26.71,26.71,0,0,1,50.9,19.788V85.716H66.972V16.072H83.044V85.716H99.116V19.788a26.71,26.71,0,0,1,13.393,23.07V85.716h16.072V42.858A42.855,42.855,0,0,0,85.723,0H64.294A42.855,42.855,0,0,0,21.435,42.858V85.716H37.507Zm111.933,71.62-3.583-10.715a10.729,10.729,0,0,0-10.179-7.333H14.3a10.729,10.729,0,0,0-10.179,7.333L.542,114.478a10.741,10.741,0,0,0,10.179,14.1v37.5a5.373,5.373,0,0,0,5.357,5.357H26.793a5.373,5.373,0,0,0,5.357-5.357v-37.5h85.716v37.5a5.373,5.373,0,0,0,5.357,5.357h10.715a5.373,5.373,0,0,0,5.357-5.357v-37.5A10.708,10.708,0,0,0,149.441,114.478Z" transform="translate(0.002)"/></svg>